<?xml version="1.0" encoding="UTF-8"?>
<svg xmlns="http://www.w3.org/2000/svg" viewBox="0 0 152.78 93"><defs></defs><g><g><path d="M0,60.94C0,39.24,16.01,25.7,35.17,25.7c6.96,0,11.81,1.59,14.96,3.17v-12.32c0-7.2-.79-12.19-8.53-11.83-.66,0-.66-1.59-.13-1.71L60.37,.22c1.31-.24,1.97-.12,1.97,.85V82.28c0,3.42,1.05,5.85,4.07,5.85,2.23,0,4.33-1.34,6.56-4.15,.52-.61,1.97,.61,1.71,1.1-3.41,4.39-9.19,7.8-14.7,7.8-8.14,0-9.71-6.1-9.84-9.64-4.2,5-11.42,9.64-21.13,9.64-14.7,0-29-10.12-29-31.95H0Zm12.2-1.83c0,17.93,8.66,28.66,21.52,28.66,7.87,0,12.47-2.32,16.4-7.81V34.85c-3.02-3.66-7.61-7.32-14.17-7.32-10.63,0-23.75,10.73-23.75,31.58h0Z"/><path d="M152.78,32.02c0,21.76-16.04,35.32-35.25,35.32-6.97,0-11.84-1.59-14.99-3.18v12.34c0,7.21,.79,12.22,8.55,11.86,.66,0,.66,1.59,.13,1.71l-18.94,2.81c-1.32,.24-1.97,.12-1.97-.86V10.63c0-3.42-1.05-5.87-4.08-5.87-2.24,0-4.34,1.34-6.58,4.16-.53,.61-1.97-.61-1.71-1.1,3.42-4.4,9.21-7.82,14.73-7.82,8.16,0,9.73,6.11,9.87,9.66,4.21-5.01,11.44-9.66,21.17-9.66,14.74,0,29.07,10.14,29.07,32.02h0Zm-12.23,1.83c0-17.97-8.68-28.72-21.57-28.72-7.89,0-12.5,2.32-16.44,7.82V58.18c3.03,3.67,7.63,7.33,14.2,7.33,10.66,0,23.81-10.75,23.81-31.66h0Z"/></g></g></svg>